<svg xmlns="http://www.w3.org/2000/svg" xmlns:xlink="http://www.w3.org/1999/xlink" xmlns:lucid="lucid" width="1198.27" height="503.33"><g transform="translate(-480 -340)" lucid:page-tab-id="0_0"><path d="M1222.5 360c-.7 0-1.25.56-1.25 1.25v7.5c0 .7-.56 1.25-1.25 1.25.7 0 1.25.56 1.25 1.25v7.5c0 .7.56 1.25 1.25 1.25m155 0c.7 0 1.25-.56 1.25-1.25v-7.5c0-.7.56-1.25 1.25-1.25-.7 0-1.25-.56-1.25-1.25v-7.5c0-.7-.56-1.25-1.25-1.25" stroke="#3a414a" fill="none"/><use xlink:href="#a" transform="matrix(1,0,0,1,1230.5,368) translate(18.734567901234584 14.222222222222218)"/><path d="M1222.5 440c-.7 0-1.25.56-1.25 1.25v7.5c0 .7-.56 1.25-1.25 1.25.7 0 1.25.56 1.25 1.25v7.5c0 .7.56 1.25 1.25 1.25m155 0c.7 0 1.25-.56 1.25-1.25v-7.5c0-.7.56-1.25 1.25-1.25-.7 0-1.25-.56-1.25-1.25v-7.5c0-.7-.56-1.25-1.25-1.25" stroke="#3a414a" fill="none"/><use xlink:href="#b" transform="matrix(1,0,0,1,1230.5,448) translate(26.660493827160508 14.222222222222218)"/><path d="M963.85 610c-1.06 0-1.92.86-1.92 1.93v11.56c0 1.05-.87 1.92-1.93 1.92 1.06 0 1.93.86 1.93 1.92v11.57c0 1.07.86 1.93 1.92 1.93m212.3 0c1.06 0 1.92-.86 1.92-1.92v-11.56c0-1.06.87-1.92 1.93-1.92-1.06 0-1.93-.87-1.93-1.93v-11.57c0-1.07-.86-1.93-1.92-1.93" stroke="#3a414a" fill="none"/><use xlink:href="#c" transform="matrix(1,0,0,1,971.8541666666666,618) translate(22.38580246913584 12.44444444444444)"/><use xlink:href="#d" transform="matrix(1,0,0,1,971.8541666666666,618) translate(63.737654320987666 12.44444444444444)"/><use xlink:href="#e" transform="matrix(1,0,0,1,971.8541666666666,618) translate(92.12654320987654 12.44444444444444)"/><use xlink:href="#f" transform="matrix(1,0,0,1,971.8541666666666,618) translate(134.4722222222222 12.44444444444444)"/><use xlink:href="#g" transform="matrix(1,0,0,1,971.8541666666666,618) translate(147.86728395061726 12.44444444444444)"/><path d="M723.85 610c-1.06 0-1.92.86-1.92 1.93v11.56c0 1.05-.87 1.92-1.93 1.92 1.06 0 1.93.86 1.93 1.92v11.57c0 1.07.86 1.93 1.92 1.93m212.3 0c1.06 0 1.92-.86 1.92-1.92v-11.56c0-1.06.87-1.92 1.93-1.92-1.06 0-1.93-.87-1.93-1.93v-11.57c0-1.07-.86-1.93-1.92-1.93" stroke="#3a414a" fill="none"/><use xlink:href="#h" transform="matrix(1,0,0,1,731.8541666666666,618) translate(40.771604938271636 12.44444444444444)"/><use xlink:href="#i" transform="matrix(1,0,0,1,731.8541666666666,618) translate(113.58024691358024 12.44444444444444)"/><path d="M1406.35 369.17c-1.75 0-3.17 1.42-3.17 3.17v19.07c0 1.76-1.43 3.18-3.18 3.18 1.75 0 3.18 1.43 3.18 3.18v19.06c0 1.76 1.42 3.18 3.17 3.18m207.3 0c1.75 0 3.17-1.42 3.17-3.18v-19.06c0-1.75 1.43-3.18 3.18-3.18-1.75 0-3.18-1.42-3.18-3.17v-19.06c0-1.75-1.42-3.17-3.17-3.17" stroke="#3a414a" fill="none"/><use xlink:href="#j" transform="matrix(1,0,0,1,1414.3541666666667,377.16666666666663) translate(7.592592592592638 17.777777777777782)"/><path d="M1406.35 440c-1.75 0-3.17 1.42-3.17 3.18v19.06c0 1.75-1.43 3.18-3.18 3.18 1.75 0 3.18 1.42 3.18 3.17v19.06c0 1.75 1.42 3.17 3.17 3.17m235.63 0c1.75 0 3.18-1.42 3.18-3.17V468.6c0-1.76 1.42-3.18 3.17-3.18-1.75 0-3.17-1.43-3.17-3.18v-19.06c0-1.76-1.43-3.18-3.18-3.18" stroke="#3a414a" fill="none"/><use xlink:href="#k" transform="matrix(1,0,0,1,1414.3541666666667,448) translate(10.85493827160498 17.777777777777782)"/><use xlink:href="#d" transform="matrix(1,0,0,1,1414.3541666666667,448) translate(129.85493827160494 17.777777777777782)"/><use xlink:href="#l" transform="matrix(1,0,0,1,1414.3541666666667,448) translate(158.24382716049382 17.777777777777782)"/><a xlink:href="http://res.rediect(/login" target="_blank" transform="matrix(1,0,0,1,1414.3541666666667,448)"><path class="lucid-link lucid-hotspot lucid-overlay-hotspot" fill-opacity="0" d="M10.85 5.33h114.68V24H10.85z"/></a><path d="M1000 720h180v60h-180zM1000 525.83h180v60h-180z" stroke="#d916a8" stroke-width="2" fill="#eee"/><path d="M550.1 670c2.7 0 4.9-2.18 4.9-4.83v-.56c-1.98-15.26-10.67-27.66-27.5-27.66s-25.74 10.5-27.44 27.7c-.06 0-.06.04-.06.04-.22 2.68 1.76 5.06 4.45 5.32h45.66z" stroke="#000" stroke-opacity="0" fill="url(#m)"/><path d="M527.48 640.58c-3.1 0-5.74-.77-8.34-2.44l8.34 21.42 8.2-21.3c-2.57 1.62-5.15 2.34-8.2 2.32z" stroke="#000" stroke-opacity="0" fill="#fff" fill-opacity=".8"/><path d="M542.96 625.27c0 8.43-6.9 15.27-15.4 15.27s-15.4-6.84-15.4-15.27 6.9-15.27 15.4-15.27 15.4 6.84 15.4 15.27z" stroke="#000" stroke-opacity="0" fill="url(#n)"/><use xlink:href="#o" transform="matrix(1,0,0,1,470,679) translate(34.05 14.4)"/><path d="M1239.54 595h-35.1c-2.42 0-4.44 1.98-4.44 4.4V685h24.16v-8.73h-17.56v-4.4h17.56v-4.42h-17.56v-4.4h17.56v-15.31h19.73V599.4c0-2.42-1.95-4.4-4.36-4.4zm-2.26 17.55h-30.68v-4.4h30.68v4.4z" stroke="#000" stroke-opacity="0" fill="#2a3282"/><path d="M1227.2 650.98V685h50.48v-34.02h-50.5zm48.07 31.4h-46.06v-24.2h46.15v24.2h-.08z" stroke="#000" stroke-opacity="0" fill="#2a3282"/><path d="M1248.94 662.6h-15.38v15.38h15.38v-15.4zM1270.92 675.82h-16.47v2.16h16.47v-2.16zM1270.92 671.4h-16.47v2.17h16.47v-2.16zM1270.92 667h-16.47v2.16h16.47V667zM1270.92 662.6h-16.47v2.24h16.47v-2.25z" stroke="#000" stroke-opacity="0" fill="#2a3282"/><path d="M1012.67 555.52l-480.05.05-.82.2-.8.33-.73.45-.66.56-.55.67-.45.73-.33.8-.2.84-.07.88v48.5h-1v-48.54l.08-1 .24-1 .4-.93.52-.87.66-.78.78-.66.87-.53.94-.38 1-.25 480.17-.05zm203.63-.94l1 .24.94.4.86.52.78.66.66.78.54.87.4.94.23 1 .08 18.6-1 .02-.07-18.5-.2-.82-.32-.8-.45-.73-.56-.66-.65-.55-.74-.45-.8-.33-.84-.2-.88-.07h-40.86v-1h40.9z" stroke="#d916a8" stroke-width=".05" fill="#d916a8"/><path d="M528 610.06l-.45-.06-.55.07v-.58h1z" fill="#d916a8"/><path d="M528.02 610.1l-.47-.07-.57.07v-.63H528zm-1-.58v.52l.54-.07.42.06v-.5z" stroke="#d916a8" stroke-width=".05" fill="#d916a8"/><path d="M1221.28 593.38l-4.63-14.26h9.27z" fill="#d916a8"/><path d="M1221.28 595l-5.32-16.38h10.65zm-3.94-15.38l3.94 12.14 3.95-12.14z" stroke="#d916a8" stroke-width=".05" fill="#d916a8"/><use xlink:href="#p" transform="matrix(1,0,0,1,1012.6745709344098,544.3333333333334) translate(0 14.222222222222223)"/><use xlink:href="#q" transform="matrix(1,0,0,1,1012.6745709344098,544.3333333333334) translate(64.0493827160494 14.222222222222223)"/><path d="M540 506a6 6 0 0 1 6-6h408a6 6 0 0 1 6 6v62a6 6 0 0 1-6 6H546a6 6 0 0 1-6-6z" stroke="#000" stroke-opacity="0" fill="#fff" fill-opacity="0"/><use xlink:href="#r" transform="matrix(1,0,0,1,545,505) translate(22.259259259259295 34.22222222222222)"/><use xlink:href="#s" transform="matrix(1,0,0,1,545,505) translate(63.345679012345705 34.22222222222222)"/><use xlink:href="#t" transform="matrix(1,0,0,1,545,505) translate(302.99999999999994 34.22222222222222)"/><use xlink:href="#u" transform="matrix(1,0,0,1,545,505) translate(335.4444444444444 34.22222222222222)"/><path d="M1242.2 701.38l-.06 53.62-.24 1-.4.95-.53.87-.66.78-.77.66-.87.53-.94.38-1 .24-1 .08h-64.78v-1h64.75l.87-.07.84-.2.8-.33.74-.45.66-.56.56-.67.45-.73.34-.8.2-.82.07-53.5zM528 753.98l.07.88.2.84.33.8.45.73.56.66.67.55.73.45.8.33.82.2 476.6.05v1l-476.72-.05-1-.25-.95-.4-.87-.52-.78-.66-.66-.78-.53-.87-.38-.94-.24-.98-.08-1V670.5h1z" stroke="#008573" stroke-width=".05" fill="#008573"/><path d="M528 670.5h-1v-.5h1z" fill="#008573"/><path d="M528.02 670.54H527v-.56H528zm-1-.5v.45h.96V670z" stroke="#008573" stroke-width=".05" fill="#008573"/><path d="M1246.35 700.88h-9.27l4.63-14.26z" fill="#008573"/><path d="M1247.04 701.38h-10.65l5.3-16.38zm-9.27-1h7.9l-3.96-12.14z" stroke="#008573" stroke-width=".05" fill="#008573"/><use xlink:href="#p" transform="matrix(1,0,0,1,1009.2119904367723,749.3333333333334) translate(0 14.222222222222223)"/><use xlink:href="#q" transform="matrix(1,0,0,1,1009.2119904367723,749.3333333333334) translate(64.0493827160494 14.222222222222223)"/><path d="M1240 626a6 6 0 0 1 6-6h108a6 6 0 0 1 6 6v18a6 6 0 0 1-6 6h-108a6 6 0 0 1-6-6z" stroke="#000" stroke-opacity="0" fill="#fff" fill-opacity="0"/><use xlink:href="#v" transform="matrix(1,0,0,1,1245,625) translate(8.333333333333343 15.472222222222221)"/><use xlink:href="#w" transform="matrix(1,0,0,1,1245,625) translate(49.41975308641975 15.472222222222221)"/><path d="M540 766a6 6 0 0 1 6-6h228a6 6 0 0 1 6 6v51.33a6 6 0 0 1-6 6H546a6 6 0 0 1-6-6z" stroke="#000" stroke-opacity="0" fill="#fff" fill-opacity="0"/><use xlink:href="#x" transform="matrix(1,0,0,1,545,765) translate(91 19.888888888888886)"/><use xlink:href="#y" transform="matrix(1,0,0,1,545,765) translate(-0.9259259259258812 41.222222222222214)"/><path d="M1560 595.83h88.33v88.34H1560v-88.34z" stroke="#fff" stroke-opacity="0" stroke-width="2" fill="#3b48cc"/><path d="M1607.18 656.2h-1.54c-.64 0-1.17-.52-1.17-1.18V628.8c0-.65.53-1.17 1.17-1.17h13.92c.35 0 .64.15.88.4l3.53 4.26-1.66 1.5-3.27-3.82h-12.26v23.96h.4z" stroke="#fff" stroke-opacity="0" stroke-width="2" fill="#fff"/><path d="M1628.7 660.46h-19.05c-.64 0-1.17-.52-1.17-1.17v-26.23c0-.66.53-1.17 1.17-1.17h14.68c.32 0 .58.1.8.34l4.37 4.4c.2.23.32.48.32.8v21.88c-.02.62-.5 1.1-1.13 1.14zm-17.92-2.2h16.78V637.9l-3.7-3.7h-13.08z" stroke="#fff" stroke-opacity="0" stroke-width="2" fill="#fff"/><path d="M1628.7 639.74h-5.53c-.65 0-1.18-.53-1.18-1.17v-5.54h2.24v4.4h4.4zM1618.16 654.3h-.74c-.6.02-1.12-.2-1.5-.67-.5-.72-.65-1.5-.5-2.36-.06-2.1-1.24-2.43-1.24-2.43-.6-.23-.92-.92-.7-1.52.14-.33.37-.57.7-.7.1 0 1.18-.43 1.18-2.5 0-1.23.57-2.6 1.95-2.66h.8v2.27h-.4v.4c.1 1.37-.3 2.56-1.17 3.6.88 1.08 1.27 2.26 1.18 3.64.02.08.02.14 0 .2v.52h.52zM1621.33 654.3v-2.25h.43c.02-.14.02-.24 0-.38-.08-1.37.3-2.57 1.18-3.62-.87-1.06-1.26-2.26-1.18-3.63v-.2c.02-.18.02-.32 0-.5h-.5v-2.27h.74c.6 0 1.12.23 1.5.68.5.72.65 1.5.5 2.36 0 2 1.17 2.35 1.17 2.4.5.18.83.66.8 1.2 0 .5-.32.94-.83 1.07-.1 0-1.18.43-1.18 2.5 0 1.25-.57 2.62-1.95 2.66zM1597.96 627.87c-9.4 0-19.45-2.9-19.45-8.25 0-5.34 10-8.24 19.46-8.24 9.45 0 19.44 2.9 19.44 8.24 0 5.35-10.03 8.25-19.44 8.25zm0-14.28c-10.1 0-17.2 3.16-17.2 6s7.1 6 17.2 6 17.2-3.16 17.2-6-7.1-6-17.2-6z" stroke="#fff" stroke-opacity="0" stroke-width="2" fill="#fff"/><path d="M1615.13 619.6h2.26v7.14h-2.27v-7.14zM1597.96 668.67c-9.4 0-19.45-2.9-19.45-8.25V619.6h2.27v40.77c0 2.85 7.08 6.04 17.2 6.04 10.1 0 17.18-3.18 17.18-6.03h2.25c0 5.4-10.03 8.3-19.44 8.3z" stroke="#fff" stroke-opacity="0" stroke-width="2" fill="#fff"/><path d="M1598 642.13c-11.07 0-19.4-3.53-19.4-8.24h2.27c0 2.82 7.08 6 17.12 6 1.8 0 3.3-.1 5.08-.3l.25 2.25c-1.88.2-3.46.3-5.34.28zM1598 656.15c-11.07 0-19.4-3.54-19.4-8.25h2.27c0 2.84 7.07 6 17.13 6 1.78 0 3.3-.08 5.07-.27l.25 2.27c-1.86.2-3.46.26-5.32.25z" stroke="#fff" stroke-opacity="0" stroke-width="2" fill="#fff"/><use xlink:href="#z" transform="matrix(1,0,0,1,1530,693.1666666666667) translate(22.092592592592595 17.77777777777778)"/><use xlink:href="#A" transform="matrix(1,0,0,1,1530,693.1666666666667) translate(28.265432098765434 17.77777777777778)"/><path d="M1293.52 650.98h250.1" stroke="#3a414a" fill="none"/><path d="M1278.75 650.98l14.27-4.64v9.28zM1558.38 650.98l-14.26 4.64v-9.28z" stroke="#3a414a" fill="#3a414a"/><path d="M1360 661a6 6 0 0 1 6-6h108a6 6 0 0 1 6 6v18a6 6 0 0 1-6 6h-108a6 6 0 0 1-6-6z" stroke="#000" stroke-opacity="0" fill="#fff" fill-opacity="0"/><g><use xlink:href="#B" transform="matrix(1,0,0,1,1365,660) translate(23.024691358024693 19.02777777777778)"/></g><path d="M1242.17 595.66V471.42a6 6 0 0 1 6-6h136.75" stroke="#e81313" fill="none"/><path d="M1242.67 596.44l-1-.56v-.24h1z" stroke="#e81313" stroke-width=".05" fill="#e81313"/><path d="M1399.7 465.42l-14.28 4.63v-9.27z" stroke="#e81313" fill="#e81313"/><path d="M1383.62 390h-291.05a6 6 0 0 0-6 6v128.33" stroke="#e81313" fill="none"/><path d="M1398.38 390l-14.26 4.64v-9.28z" stroke="#e81313" fill="#e81313"/><path d="M1087.07 524.83h-1v-.5h1z" stroke="#e81313" stroke-width=".05" fill="#e81313"/><path d="M556.66 640h642.84" stroke="#008a0e" fill="none"/><path d="M541.9 640l14.26-4.64v9.28z" stroke="#008a0e" fill="#008a0e"/><path d="M1200 640.5h-.5v-1h.5z" stroke="#008a0e" stroke-width=".05" fill="#008a0e"/><path d="M570 658.3a4.62 4.62 0 0 1 4.62 4.62V674a6 6 0 0 0 6 6H1173a6 6 0 0 0 6-6v-9.7a6 6 0 0 1 6-6h14.5" stroke="#3a414a" fill="none"/><path d="M555.24 658.3l14.26-4.63v9.27z" stroke="#3a414a" fill="#3a414a"/><path d="M1200 658.8h-.5v-1h.5z" stroke="#3a414a" stroke-width=".05" fill="#3a414a"/><defs><path fill="#e81313" d="M127-220V0H93v-220H8v-28h204v28h-85" id="C"/><path fill="#e81313" d="M100-194c62-1 85 37 85 99 1 63-27 99-86 99S16-35 15-95c0-66 28-99 85-99zM99-20c44 1 53-31 53-75 0-43-8-75-51-75s-53 32-53 75 10 74 51 75" id="D"/><path fill="#e81313" d="M143 0L79-87 56-68V0H24v-261h32v163l83-92h37l-77 82L181 0h-38" id="E"/><path fill="#e81313" d="M100-194c63 0 86 42 84 106H49c0 40 14 67 53 68 26 1 43-12 49-29l28 8c-11 28-37 45-77 45C44 4 14-33 15-96c1-61 26-98 85-98zm52 81c6-60-76-77-97-28-3 7-6 17-6 28h103" id="F"/><path fill="#e81313" d="M117-194c89-4 53 116 60 194h-32v-121c0-31-8-49-39-48C34-167 62-67 57 0H25l-1-190h30c1 10-1 24 2 32 11-22 29-35 61-36" id="G"/><path fill="#e81313" d="M16-82v-28h88v28H16" id="H"/><path fill="#e81313" d="M141 0L90-78 38 0H4l68-98-65-92h35l48 74 47-74h35l-64 92 68 98h-35" id="I"/><path fill="#e81313" d="M115-194c55 1 70 41 70 98S169 2 115 4C84 4 66-9 55-30l1 105H24l-1-265h31l2 30c10-21 28-34 59-34zm-8 174c40 0 45-34 45-75s-6-73-45-74c-42 0-51 32-51 76 0 43 10 73 51 73" id="J"/><path fill="#e81313" d="M24-231v-30h32v30H24zM24 0v-190h32V0H24" id="K"/><path fill="#e81313" d="M114-163C36-179 61-72 57 0H25l-1-190h30c1 12-1 29 2 39 6-27 23-49 58-41v29" id="L"/><g id="a"><use transform="matrix(0.0493827160493827,0,0,0.0493827160493827,0,0)" xlink:href="#C"/><use transform="matrix(0.0493827160493827,0,0,0.0493827160493827,8.839506172839503,0)" xlink:href="#D"/><use transform="matrix(0.0493827160493827,0,0,0.0493827160493827,18.716049382716044,0)" xlink:href="#E"/><use transform="matrix(0.0493827160493827,0,0,0.0493827160493827,27.60493827160493,0)" xlink:href="#F"/><use transform="matrix(0.0493827160493827,0,0,0.0493827160493827,37.48148148148147,0)" xlink:href="#G"/><use transform="matrix(0.0493827160493827,0,0,0.0493827160493827,47.358024691358004,0)" xlink:href="#H"/><use transform="matrix(0.0493827160493827,0,0,0.0493827160493827,53.23456790123454,0)" xlink:href="#F"/><use transform="matrix(0.0493827160493827,0,0,0.0493827160493827,63.11111111111108,0)" xlink:href="#I"/><use transform="matrix(0.0493827160493827,0,0,0.0493827160493827,71.99999999999997,0)" xlink:href="#J"/><use transform="matrix(0.0493827160493827,0,0,0.0493827160493827,81.87654320987652,0)" xlink:href="#K"/><use transform="matrix(0.0493827160493827,0,0,0.0493827160493827,85.77777777777774,0)" xlink:href="#L"/><use transform="matrix(0.0493827160493827,0,0,0.0493827160493827,91.65432098765429,0)" xlink:href="#F"/></g><path fill="#e81313" d="M210-169c-67 3-38 105-44 169h-31v-121c0-29-5-50-35-48C34-165 62-65 56 0H25l-1-190h30c1 10-1 24 2 32 10-44 99-50 107 0 11-21 27-35 58-36 85-2 47 119 55 194h-31v-121c0-29-5-49-35-48" id="M"/><path fill="#e81313" d="M141-36C126-15 110 5 73 4 37 3 15-17 15-53c-1-64 63-63 125-63 3-35-9-54-41-54-24 1-41 7-42 31l-33-3c5-37 33-52 76-52 45 0 72 20 72 64v82c-1 20 7 32 28 27v20c-31 9-61-2-59-35zM48-53c0 20 12 33 32 33 41-3 63-29 60-74-43 2-92-5-92 41" id="N"/><path fill="#e81313" d="M24 0v-261h32V0H24" id="O"/><path fill="#e81313" d="M101-234c-31-9-42 10-38 44h38v23H63V0H32v-167H5v-23h27c-7-52 17-82 69-68v24" id="P"/><path fill="#e81313" d="M135-143c-3-34-86-38-87 0 15 53 115 12 119 90S17 21 10-45l28-5c4 36 97 45 98 0-10-56-113-15-118-90-4-57 82-63 122-42 12 7 21 19 24 35" id="Q"/><g id="b"><use transform="matrix(0.0493827160493827,0,0,0.0493827160493827,0,0)" xlink:href="#F"/><use transform="matrix(0.0493827160493827,0,0,0.0493827160493827,9.876543209876539,0)" xlink:href="#M"/><use transform="matrix(0.0493827160493827,0,0,0.0493827160493827,24.641975308641968,0)" xlink:href="#K"/><use transform="matrix(0.0493827160493827,0,0,0.0493827160493827,28.5432098765432,0)" xlink:href="#N"/><use transform="matrix(0.0493827160493827,0,0,0.0493827160493827,38.41975308641974,0)" xlink:href="#O"/><use transform="matrix(0.0493827160493827,0,0,0.0493827160493827,42.32098765432097,0)" xlink:href="#H"/><use transform="matrix(0.0493827160493827,0,0,0.0493827160493827,48.19753086419752,0)" xlink:href="#P"/><use transform="matrix(0.0493827160493827,0,0,0.0493827160493827,53.13580246913578,0)" xlink:href="#N"/><use transform="matrix(0.0493827160493827,0,0,0.0493827160493827,63.01234567901233,0)" xlink:href="#O"/><use transform="matrix(0.0493827160493827,0,0,0.0493827160493827,66.91358024691355,0)" xlink:href="#Q"/><use transform="matrix(0.0493827160493827,0,0,0.0493827160493827,75.80246913580244,0)" xlink:href="#F"/></g><path fill="#008a0e" d="M100-194c63 0 86 42 84 106H49c0 40 14 67 53 68 26 1 43-12 49-29l28 8c-11 28-37 45-77 45C44 4 14-33 15-96c1-61 26-98 85-98zm52 81c6-60-76-77-97-28-3 7-6 17-6 28h103" id="R"/><path fill="#008a0e" d="M210-169c-67 3-38 105-44 169h-31v-121c0-29-5-50-35-48C34-165 62-65 56 0H25l-1-190h30c1 10-1 24 2 32 10-44 99-50 107 0 11-21 27-35 58-36 85-2 47 119 55 194h-31v-121c0-29-5-49-35-48" id="S"/><path fill="#008a0e" d="M24-231v-30h32v30H24zM24 0v-190h32V0H24" id="T"/><path fill="#008a0e" d="M141-36C126-15 110 5 73 4 37 3 15-17 15-53c-1-64 63-63 125-63 3-35-9-54-41-54-24 1-41 7-42 31l-33-3c5-37 33-52 76-52 45 0 72 20 72 64v82c-1 20 7 32 28 27v20c-31 9-61-2-59-35zM48-53c0 20 12 33 32 33 41-3 63-29 60-74-43 2-92-5-92 41" id="U"/><path fill="#008a0e" d="M24 0v-261h32V0H24" id="V"/><g id="c"><use transform="matrix(0.04320987654320985,0,0,0.04320987654320985,0,0)" xlink:href="#R"/><use transform="matrix(0.04320987654320985,0,0,0.04320987654320985,8.641975308641971,0)" xlink:href="#S"/><use transform="matrix(0.04320987654320985,0,0,0.04320987654320985,21.561728395061717,0)" xlink:href="#T"/><use transform="matrix(0.04320987654320985,0,0,0.04320987654320985,24.975308641975296,0)" xlink:href="#U"/><use transform="matrix(0.04320987654320985,0,0,0.04320987654320985,33.617283950617264,0)" xlink:href="#V"/></g><path fill="#008a0e" d="M87 75C49 33 22-17 22-94c0-76 28-126 65-167h31c-38 41-64 92-64 168S80 34 118 75H87" id="W"/><path fill="#008a0e" d="M100-194c62-1 85 37 85 99 1 63-27 99-86 99S16-35 15-95c0-66 28-99 85-99zM99-20c44 1 53-31 53-75 0-43-8-75-51-75s-53 32-53 75 10 74 51 75" id="X"/><path fill="#008a0e" d="M114-163C36-179 61-72 57 0H25l-1-190h30c1 12-1 29 2 39 6-27 23-49 58-41v29" id="Y"/><path fill="#008a0e" d="M33-261c38 41 65 92 65 168S71 34 33 75H2C39 34 66-17 66-93S39-220 2-261h31" id="Z"/><g id="d"><use transform="matrix(0.04320987654320985,0,0,0.04320987654320985,0,0)" xlink:href="#W"/><use transform="matrix(0.04320987654320985,0,0,0.04320987654320985,5.141975308641973,0)" xlink:href="#X"/><use transform="matrix(0.04320987654320985,0,0,0.04320987654320985,13.783950617283944,0)" xlink:href="#Y"/><use transform="matrix(0.04320987654320985,0,0,0.04320987654320985,18.925925925925917,0)" xlink:href="#Z"/></g><path fill="#008a0e" d="M59-47c-2 24 18 29 38 22v24C64 9 27 4 27-40v-127H5v-23h24l9-43h21v43h35v23H59v120" id="aa"/><path fill="#008a0e" d="M143 0L79-87 56-68V0H24v-261h32v163l83-92h37l-77 82L181 0h-38" id="ab"/><path fill="#008a0e" d="M117-194c89-4 53 116 60 194h-32v-121c0-31-8-49-39-48C34-167 62-67 57 0H25l-1-190h30c1 10-1 24 2 32 11-22 29-35 61-36" id="ac"/><g id="e"><use transform="matrix(0.04320987654320985,0,0,0.04320987654320985,0,0)" xlink:href="#aa"/><use transform="matrix(0.04320987654320985,0,0,0.04320987654320985,4.3209876543209855,0)" xlink:href="#X"/><use transform="matrix(0.04320987654320985,0,0,0.04320987654320985,12.962962962962957,0)" xlink:href="#ab"/><use transform="matrix(0.04320987654320985,0,0,0.04320987654320985,20.74074074074073,0)" xlink:href="#R"/><use transform="matrix(0.04320987654320985,0,0,0.04320987654320985,29.3827160493827,0)" xlink:href="#ac"/></g><path fill="#008a0e" d="M18-150v-26h174v26H18zm0 90v-26h174v26H18" id="ad"/><use transform="matrix(0.04320987654320985,0,0,0.04320987654320985,0,0)" xlink:href="#ad" id="f"/><path fill="#008a0e" d="M84 4C-5 8 30-112 23-190h32v120c0 31 7 50 39 49 72-2 45-101 50-169h31l1 190h-30c-1-10 1-25-2-33-11 22-28 36-60 37" id="ae"/><g id="g"><use transform="matrix(0.04320987654320985,0,0,0.04320987654320985,0,0)" xlink:href="#aa"/><use transform="matrix(0.04320987654320985,0,0,0.04320987654320985,4.3209876543209855,0)" xlink:href="#Y"/><use transform="matrix(0.04320987654320985,0,0,0.04320987654320985,9.462962962962958,0)" xlink:href="#ae"/><use transform="matrix(0.04320987654320985,0,0,0.04320987654320985,18.10493827160493,0)" xlink:href="#R"/></g><path fill="#008a0e" d="M135-143c-3-34-86-38-87 0 15 53 115 12 119 90S17 21 10-45l28-5c4 36 97 45 98 0-10-56-113-15-118-90-4-57 82-63 122-42 12 7 21 19 24 35" id="af"/><path fill="#008a0e" d="M47-170H22l-4-78h33" id="ag"/><path fill="#008a0e" d="M106-169C34-169 62-67 57 0H25v-261h32l-1 103c12-21 28-36 61-36 89 0 53 116 60 194h-32v-121c2-32-8-49-39-48" id="ah"/><g id="h"><use transform="matrix(0.04320987654320985,0,0,0.04320987654320985,0,0)" xlink:href="#Y"/><use transform="matrix(0.04320987654320985,0,0,0.04320987654320985,5.141975308641973,0)" xlink:href="#R"/><use transform="matrix(0.04320987654320985,0,0,0.04320987654320985,13.783950617283944,0)" xlink:href="#af"/><use transform="matrix(0.04320987654320985,0,0,0.04320987654320985,21.561728395061717,0)" xlink:href="#W"/><use transform="matrix(0.04320987654320985,0,0,0.04320987654320985,26.703703703703688,0)" xlink:href="#ag"/><use transform="matrix(0.04320987654320985,0,0,0.04320987654320985,29.641975308641953,0)" xlink:href="#ah"/><use transform="matrix(0.04320987654320985,0,0,0.04320987654320985,38.28395061728393,0)" xlink:href="#X"/><use transform="matrix(0.04320987654320985,0,0,0.04320987654320985,46.92592592592589,0)" xlink:href="#S"/><use transform="matrix(0.04320987654320985,0,0,0.04320987654320985,59.845679012345634,0)" xlink:href="#R"/></g><path fill="#008a0e" d="M115-194c55 1 70 41 70 98S169 2 115 4C84 4 66-9 55-30l1 105H24l-1-265h31l2 30c10-21 28-34 59-34zm-8 174c40 0 45-34 45-75s-6-73-45-74c-42 0-51 32-51 76 0 43 10 73 51 73" id="ai"/><path fill="#008a0e" d="M177-190C167-65 218 103 67 71c-23-6-38-20-44-43l32-5c15 47 100 32 89-28v-30C133-14 115 1 83 1 29 1 15-40 15-95c0-56 16-97 71-98 29-1 48 16 59 35 1-10 0-23 2-32h30zM94-22c36 0 50-32 50-73 0-42-14-75-50-75-39 0-46 34-46 75s6 73 46 73" id="aj"/><g id="i"><use transform="matrix(0.04320987654320985,0,0,0.04320987654320985,0,0)" xlink:href="#ai"/><use transform="matrix(0.04320987654320985,0,0,0.04320987654320985,8.641975308641971,0)" xlink:href="#U"/><use transform="matrix(0.04320987654320985,0,0,0.04320987654320985,17.283950617283942,0)" xlink:href="#aj"/><use transform="matrix(0.04320987654320985,0,0,0.04320987654320985,25.925925925925913,0)" xlink:href="#R"/><use transform="matrix(0.04320987654320985,0,0,0.04320987654320985,34.567901234567884,0)" xlink:href="#ag"/><use transform="matrix(0.04320987654320985,0,0,0.04320987654320985,37.506172839506156,0)" xlink:href="#Z"/></g><path fill="#008a0e" d="M33 0v-38h34V0H33" id="ak"/><path fill="#008a0e" d="M85-194c31 0 48 13 60 33l-1-100h32l1 261h-30c-2-10 0-23-3-31C134-8 116 4 85 4 32 4 16-35 15-94c0-66 23-100 70-100zm9 24c-40 0-46 34-46 75 0 40 6 74 45 74 42 0 51-32 51-76 0-42-9-74-50-73" id="al"/><path fill="#008a0e" d="M96-169c-40 0-48 33-48 73s9 75 48 75c24 0 41-14 43-38l32 2c-6 37-31 61-74 61-59 0-76-41-82-99-10-93 101-131 147-64 4 7 5 14 7 22l-32 3c-4-21-16-35-41-35" id="am"/><path fill="#008a0e" d="M0 4l72-265h28L28 4H0" id="an"/><path fill="#008a0e" d="M101-234c-31-9-42 10-38 44h38v23H63V0H32v-167H5v-23h27c-7-52 17-82 69-68v24" id="ao"/><path fill="#008a0e" d="M127-220V0H93v-220H8v-28h204v28h-85" id="ap"/><g id="j"><use transform="matrix(0.04320987654320985,0,0,0.04320987654320985,0,0)" xlink:href="#Y"/><use transform="matrix(0.04320987654320985,0,0,0.04320987654320985,5.141975308641973,0)" xlink:href="#R"/><use transform="matrix(0.04320987654320985,0,0,0.04320987654320985,13.783950617283944,0)" xlink:href="#af"/><use transform="matrix(0.04320987654320985,0,0,0.04320987654320985,21.561728395061717,0)" xlink:href="#ak"/><use transform="matrix(0.04320987654320985,0,0,0.04320987654320985,25.8827160493827,0)" xlink:href="#Y"/><use transform="matrix(0.04320987654320985,0,0,0.04320987654320985,31.024691358024675,0)" xlink:href="#R"/><use transform="matrix(0.04320987654320985,0,0,0.04320987654320985,39.66666666666664,0)" xlink:href="#al"/><use transform="matrix(0.04320987654320985,0,0,0.04320987654320985,48.30864197530862,0)" xlink:href="#T"/><use transform="matrix(0.04320987654320985,0,0,0.04320987654320985,51.72222222222219,0)" xlink:href="#R"/><use transform="matrix(0.04320987654320985,0,0,0.04320987654320985,60.36419753086417,0)" xlink:href="#am"/><use transform="matrix(0.04320987654320985,0,0,0.04320987654320985,68.14197530864193,0)" xlink:href="#aa"/><use transform="matrix(0.04320987654320985,0,0,0.04320987654320985,72.46296296296292,0)" xlink:href="#W"/><use transform="matrix(0.04320987654320985,0,0,0.04320987654320985,77.6049382716049,0)" xlink:href="#an"/><use transform="matrix(0.04320987654320985,0,0,0.04320987654320985,81.92592592592588,0)" xlink:href="#Y"/><use transform="matrix(0.04320987654320985,0,0,0.04320987654320985,87.06790123456786,0)" xlink:href="#R"/><use transform="matrix(0.04320987654320985,0,0,0.04320987654320985,95.70987654320983,0)" xlink:href="#ao"/><use transform="matrix(0.04320987654320985,0,0,0.04320987654320985,100.0308641975308,0)" xlink:href="#Y"/><use transform="matrix(0.04320987654320985,0,0,0.04320987654320985,105.17283950617278,0)" xlink:href="#R"/><use transform="matrix(0.04320987654320985,0,0,0.04320987654320985,113.81481481481477,0)" xlink:href="#af"/><use transform="matrix(0.04320987654320985,0,0,0.04320987654320985,121.59259259259255,0)" xlink:href="#ah"/><use transform="matrix(0.04320987654320985,0,0,0.04320987654320985,130.2345679012345,0)" xlink:href="#ap"/><use transform="matrix(0.04320987654320985,0,0,0.04320987654320985,137.96913580246905,0)" xlink:href="#X"/><use transform="matrix(0.04320987654320985,0,0,0.04320987654320985,146.61111111111103,0)" xlink:href="#ab"/><use transform="matrix(0.04320987654320985,0,0,0.04320987654320985,154.3888888888888,0)" xlink:href="#R"/><use transform="matrix(0.04320987654320985,0,0,0.04320987654320985,163.03086419753078,0)" xlink:href="#ac"/><use transform="matrix(0.04320987654320985,0,0,0.04320987654320985,171.67283950617275,0)" xlink:href="#Z"/></g><g id="k"><use transform="matrix(0.04320987654320985,0,0,0.04320987654320985,0,0)" xlink:href="#Y"/><use transform="matrix(0.04320987654320985,0,0,0.04320987654320985,5.141975308641973,0)" xlink:href="#R"/><use transform="matrix(0.04320987654320985,0,0,0.04320987654320985,13.783950617283944,0)" xlink:href="#af"/><use transform="matrix(0.04320987654320985,0,0,0.04320987654320985,21.561728395061717,0)" xlink:href="#ak"/><use transform="matrix(0.04320987654320985,0,0,0.04320987654320985,25.8827160493827,0)" xlink:href="#Y"/><use transform="matrix(0.04320987654320985,0,0,0.04320987654320985,31.024691358024675,0)" xlink:href="#R"/><use transform="matrix(0.04320987654320985,0,0,0.04320987654320985,39.66666666666664,0)" xlink:href="#al"/><use transform="matrix(0.04320987654320985,0,0,0.04320987654320985,48.30864197530862,0)" xlink:href="#T"/><use transform="matrix(0.04320987654320985,0,0,0.04320987654320985,51.72222222222219,0)" xlink:href="#R"/><use transform="matrix(0.04320987654320985,0,0,0.04320987654320985,60.36419753086417,0)" xlink:href="#am"/><use transform="matrix(0.04320987654320985,0,0,0.04320987654320985,68.14197530864193,0)" xlink:href="#aa"/><use transform="matrix(0.04320987654320985,0,0,0.04320987654320985,72.46296296296292,0)" xlink:href="#W"/><use transform="matrix(0.04320987654320985,0,0,0.04320987654320985,77.6049382716049,0)" xlink:href="#an"/><use transform="matrix(0.04320987654320985,0,0,0.04320987654320985,81.92592592592588,0)" xlink:href="#V"/><use transform="matrix(0.04320987654320985,0,0,0.04320987654320985,85.33950617283946,0)" xlink:href="#X"/><use transform="matrix(0.04320987654320985,0,0,0.04320987654320985,93.98148148148142,0)" xlink:href="#aj"/><use transform="matrix(0.04320987654320985,0,0,0.04320987654320985,102.62345679012343,0)" xlink:href="#T"/><use transform="matrix(0.04320987654320985,0,0,0.04320987654320985,106.037037037037,0)" xlink:href="#ac"/><path fill="#8080ff" d="M-.78 1.08h116.23v1.14H-.78z"/></g><g id="l"><use transform="matrix(0.04320987654320985,0,0,0.04320987654320985,0,0)" xlink:href="#af"/><use transform="matrix(0.04320987654320985,0,0,0.04320987654320985,7.777777777777773,0)" xlink:href="#T"/><use transform="matrix(0.04320987654320985,0,0,0.04320987654320985,11.191358024691352,0)" xlink:href="#aj"/><use transform="matrix(0.04320987654320985,0,0,0.04320987654320985,19.83333333333332,0)" xlink:href="#ac"/><use transform="matrix(0.04320987654320985,0,0,0.04320987654320985,28.475308641975293,0)" xlink:href="#ae"/><use transform="matrix(0.04320987654320985,0,0,0.04320987654320985,37.117283950617264,0)" xlink:href="#ai"/><use transform="matrix(0.04320987654320985,0,0,0.04320987654320985,45.75925925925924,0)" xlink:href="#Z"/></g><linearGradient gradientUnits="userSpaceOnUse" id="m" x1="527.5" y1="602.67" x2="527.5" y2="684.83"><stop offset="22%" stop-color="#32d4f5" stop-opacity=".8"/><stop offset="100%" stop-color="#198ab3" stop-opacity=".8"/></linearGradient><linearGradient gradientUnits="userSpaceOnUse" id="n" x1="525.1" y1="607.38" x2="531.04" y2="688.08"><stop offset="22%" stop-color="#32d4f5" stop-opacity=".8"/><stop offset="100%" stop-color="#198ab3" stop-opacity=".8"/></linearGradient><path d="M232-93c-1 65-40 97-104 97C67 4 28-28 28-90v-158h33c8 89-33 224 67 224 102 0 64-133 71-224h33v155" id="aq"/><path d="M135-143c-3-34-86-38-87 0 15 53 115 12 119 90S17 21 10-45l28-5c4 36 97 45 98 0-10-56-113-15-118-90-4-57 82-63 122-42 12 7 21 19 24 35" id="ar"/><path d="M100-194c63 0 86 42 84 106H49c0 40 14 67 53 68 26 1 43-12 49-29l28 8c-11 28-37 45-77 45C44 4 14-33 15-96c1-61 26-98 85-98zm52 81c6-60-76-77-97-28-3 7-6 17-6 28h103" id="as"/><path d="M114-163C36-179 61-72 57 0H25l-1-190h30c1 12-1 29 2 39 6-27 23-49 58-41v29" id="at"/><g id="o"><use transform="matrix(0.05,0,0,0.05,0,0)" xlink:href="#aq"/><use transform="matrix(0.05,0,0,0.05,12.950000000000001,0)" xlink:href="#ar"/><use transform="matrix(0.05,0,0,0.05,21.950000000000003,0)" xlink:href="#as"/><use transform="matrix(0.05,0,0,0.05,31.950000000000003,0)" xlink:href="#at"/><use transform="matrix(0.05,0,0,0.05,37.900000000000006,0)" xlink:href="#ar"/></g><path fill="#ba23f6" d="M128 0H69L1-190h53L99-40l48-150h52" id="au"/><path fill="#ba23f6" d="M185-48c-13 30-37 53-82 52C43 2 14-33 14-96s30-98 90-98c62 0 83 45 84 108H66c0 31 8 55 39 56 18 0 30-7 34-22zm-45-69c5-46-57-63-70-21-2 6-4 13-4 21h74" id="av"/><path fill="#ba23f6" d="M135-150c-39-12-60 13-60 57V0H25l-1-190h47c2 13-1 29 3 40 6-28 27-53 61-41v41" id="aw"/><path fill="#ba23f6" d="M25-224v-37h50v37H25zM25 0v-190h50V0H25" id="ax"/><path fill="#ba23f6" d="M121-226c-27-7-43 5-38 36h38v33H83V0H34v-157H6v-33h28c-9-59 32-81 87-68v32" id="ay"/><path fill="#ba23f6" d="M123 10C108 53 80 86 19 72V37c35 8 53-11 59-39L3-190h52l48 148c12-52 28-100 44-148h51" id="az"/><path fill="#ba23f6" d="M67-93c0 74 22 123 53 168H70C40 30 18-18 18-93s22-123 52-168h50c-32 44-53 94-53 168" id="aA"/><path fill="#ba23f6" d="M102-93c0 74-22 123-52 168H0C30 29 54-18 53-93c0-74-22-123-53-168h50c30 45 52 94 52 168" id="aB"/><g id="p"><use transform="matrix(0.04938271604938272,0,0,0.04938271604938272,0,0)" xlink:href="#au"/><use transform="matrix(0.04938271604938272,0,0,0.04938271604938272,9.876543209876544,0)" xlink:href="#av"/><use transform="matrix(0.04938271604938272,0,0,0.04938271604938272,19.75308641975309,0)" xlink:href="#aw"/><use transform="matrix(0.04938271604938272,0,0,0.04938271604938272,26.666666666666668,0)" xlink:href="#ax"/><use transform="matrix(0.04938271604938272,0,0,0.04938271604938272,31.60493827160494,0)" xlink:href="#ay"/><use transform="matrix(0.04938271604938272,0,0,0.04938271604938272,37.48148148148149,0)" xlink:href="#az"/><use transform="matrix(0.04938271604938272,0,0,0.04938271604938272,47.35802469135803,0)" xlink:href="#aA"/><use transform="matrix(0.04938271604938272,0,0,0.04938271604938272,53.23456790123457,0)" xlink:href="#aB"/></g><path fill="#ba23f6" d="M220-157c-53 9-28 100-34 157h-49v-107c1-27-5-49-29-50C55-147 81-57 75 0H25l-1-190h47c2 12-1 28 3 38 10-53 101-56 108 0 13-22 24-43 59-42 82 1 51 116 57 194h-49v-107c-1-25-5-48-29-50" id="aC"/><path fill="#ba23f6" d="M88-194c31-1 46 15 58 34l-1-101h50l1 261h-48c-2-10 0-23-3-31C134-8 116 4 84 4 32 4 16-41 15-95c0-56 19-97 73-99zm17 164c33 0 40-30 41-66 1-37-9-64-41-64s-38 30-39 65c0 43 13 65 39 65" id="aD"/><path fill="#ba23f6" d="M25 0v-261h50V0H25" id="aE"/><path fill="#ba23f6" d="M231 0h-52l-39-155L100 0H48L-1-190h46L77-45c9-52 24-97 36-145h53l37 145 32-145h46" id="aF"/><path fill="#ba23f6" d="M133-34C117-15 103 5 69 4 32 3 11-16 11-54c-1-60 55-63 116-61 1-26-3-47-28-47-18 1-26 9-28 27l-52-2c7-38 36-58 82-57s74 22 75 68l1 82c-1 14 12 18 25 15v27c-30 8-71 5-69-32zm-48 3c29 0 43-24 42-57-32 0-66-3-65 30 0 17 8 27 23 27" id="aG"/><g id="q"><use transform="matrix(0.04938271604938272,0,0,0.04938271604938272,0,0)" xlink:href="#aC"/><use transform="matrix(0.04938271604938272,0,0,0.04938271604938272,15.80246913580247,0)" xlink:href="#ax"/><use transform="matrix(0.04938271604938272,0,0,0.04938271604938272,20.74074074074074,0)" xlink:href="#aD"/><use transform="matrix(0.04938271604938272,0,0,0.04938271604938272,31.555555555555557,0)" xlink:href="#aD"/><use transform="matrix(0.04938271604938272,0,0,0.04938271604938272,42.370370370370374,0)" xlink:href="#aE"/><use transform="matrix(0.04938271604938272,0,0,0.04938271604938272,47.308641975308646,0)" xlink:href="#av"/><use transform="matrix(0.04938271604938272,0,0,0.04938271604938272,57.18518518518519,0)" xlink:href="#aF"/><use transform="matrix(0.04938271604938272,0,0,0.04938271604938272,71.01234567901236,0)" xlink:href="#aG"/><use transform="matrix(0.04938271604938272,0,0,0.04938271604938272,80.8888888888889,0)" xlink:href="#aw"/><use transform="matrix(0.04938271604938272,0,0,0.04938271604938272,87.80246913580248,0)" xlink:href="#av"/></g><path fill="#008573" d="M143 4C61 4 22-44 18-125c-5-107 100-154 193-111 17 8 29 25 37 43l-32 9c-13-25-37-40-76-40-61 0-88 39-88 99 0 61 29 100 91 101 35 0 62-11 79-27v-45h-74v-28h105v86C228-13 192 4 143 4" id="aH"/><path fill="#008573" d="M30 0v-248h187v28H63v79h144v27H63v87h162V0H30" id="aI"/><path fill="#008573" d="M127-220V0H93v-220H8v-28h204v28h-85" id="aJ"/><g id="r"><use transform="matrix(0.049382716049382706,0,0,0.049382716049382706,0,0)" xlink:href="#aH"/><use transform="matrix(0.049382716049382706,0,0,0.049382716049382706,13.827160493827158,0)" xlink:href="#aI"/><use transform="matrix(0.049382716049382706,0,0,0.049382716049382706,25.679012345679006,0)" xlink:href="#aJ"/></g><path fill="#008573" d="M106-169C34-169 62-67 57 0H25v-261h32l-1 103c12-21 28-36 61-36 89 0 53 116 60 194h-32v-121c2-32-8-49-39-48" id="aK"/><path fill="#008573" d="M59-47c-2 24 18 29 38 22v24C64 9 27 4 27-40v-127H5v-23h24l9-43h21v43h35v23H59v120" id="aL"/><path fill="#008573" d="M115-194c55 1 70 41 70 98S169 2 115 4C84 4 66-9 55-30l1 105H24l-1-265h31l2 30c10-21 28-34 59-34zm-8 174c40 0 45-34 45-75s-6-73-45-74c-42 0-51 32-51 76 0 43 10 73 51 73" id="aM"/><path fill="#008573" d="M135-143c-3-34-86-38-87 0 15 53 115 12 119 90S17 21 10-45l28-5c4 36 97 45 98 0-10-56-113-15-118-90-4-57 82-63 122-42 12 7 21 19 24 35" id="aN"/><path fill="#008573" d="M33-154v-36h34v36H33zM33 0v-36h34V0H33" id="aO"/><path fill="#008573" d="M0 4l72-265h28L28 4H0" id="aP"/><path fill="#008573" d="M206 0h-36l-40-164L89 0H53L-1-190h32L70-26l43-164h34l41 164 42-164h31" id="aQ"/><path fill="#008573" d="M33 0v-38h34V0H33" id="aR"/><path fill="#008573" d="M210-169c-67 3-38 105-44 169h-31v-121c0-29-5-50-35-48C34-165 62-65 56 0H25l-1-190h30c1 10-1 24 2 32 10-44 99-50 107 0 11-21 27-35 58-36 85-2 47 119 55 194h-31v-121c0-29-5-49-35-48" id="aS"/><path fill="#008573" d="M179-190L93 31C79 59 56 82 12 73V49c39 6 53-20 64-50L1-190h34L92-34l54-156h33" id="aT"/><path fill="#008573" d="M100-194c62-1 85 37 85 99 1 63-27 99-86 99S16-35 15-95c0-66 28-99 85-99zM99-20c44 1 53-31 53-75 0-43-8-75-51-75s-53 32-53 75 10 74 51 75" id="aU"/><path fill="#008573" d="M85-194c31 0 48 13 60 33l-1-100h32l1 261h-30c-2-10 0-23-3-31C134-8 116 4 85 4 32 4 16-35 15-94c0-66 23-100 70-100zm9 24c-40 0-46 34-46 75 0 40 6 74 45 74 42 0 51-32 51-76 0-42-9-74-50-73" id="aV"/><path fill="#008573" d="M96-169c-40 0-48 33-48 73s9 75 48 75c24 0 41-14 43-38l32 2c-6 37-31 61-74 61-59 0-76-41-82-99-10-93 101-131 147-64 4 7 5 14 7 22l-32 3c-4-21-16-35-41-35" id="aW"/><path fill="#008573" d="M24 0v-261h32V0H24" id="aX"/><path fill="#008573" d="M177-190C167-65 218 103 67 71c-23-6-38-20-44-43l32-5c15 47 100 32 89-28v-30C133-14 115 1 83 1 29 1 15-40 15-95c0-56 16-97 71-98 29-1 48 16 59 35 1-10 0-23 2-32h30zM94-22c36 0 50-32 50-73 0-42-14-75-50-75-39 0-46 34-46 75s6 73 46 73" id="aY"/><path fill="#008573" d="M24-231v-30h32v30H24zM24 0v-190h32V0H24" id="aZ"/><path fill="#008573" d="M117-194c89-4 53 116 60 194h-32v-121c0-31-8-49-39-48C34-167 62-67 57 0H25l-1-190h30c1 10-1 24 2 32 11-22 29-35 61-36" id="ba"/><g id="s"><use transform="matrix(0.049382716049382706,0,0,0.049382716049382706,0,0)" xlink:href="#aK"/><use transform="matrix(0.049382716049382706,0,0,0.049382716049382706,9.87654320987654,0)" xlink:href="#aL"/><use transform="matrix(0.049382716049382706,0,0,0.049382716049382706,14.814814814814811,0)" xlink:href="#aL"/><use transform="matrix(0.049382716049382706,0,0,0.049382716049382706,19.75308641975308,0)" xlink:href="#aM"/><use transform="matrix(0.049382716049382706,0,0,0.049382716049382706,29.629629629629623,0)" xlink:href="#aN"/><use transform="matrix(0.049382716049382706,0,0,0.049382716049382706,38.51851851851851,0)" xlink:href="#aO"/><use transform="matrix(0.049382716049382706,0,0,0.049382716049382706,43.456790123456784,0)" xlink:href="#aP"/><use transform="matrix(0.049382716049382706,0,0,0.049382716049382706,48.395061728395056,0)" xlink:href="#aP"/><use transform="matrix(0.049382716049382706,0,0,0.049382716049382706,53.333333333333336,0)" xlink:href="#aQ"/><use transform="matrix(0.049382716049382706,0,0,0.049382716049382706,66.12345679012346,0)" xlink:href="#aQ"/><use transform="matrix(0.049382716049382706,0,0,0.049382716049382706,78.91358024691358,0)" xlink:href="#aQ"/><use transform="matrix(0.049382716049382706,0,0,0.049382716049382706,90.71604938271605,0)" xlink:href="#aR"/><use transform="matrix(0.049382716049382706,0,0,0.049382716049382706,95.65432098765432,0)" xlink:href="#aS"/><use transform="matrix(0.049382716049382706,0,0,0.049382716049382706,110.41975308641976,0)" xlink:href="#aT"/><use transform="matrix(0.049382716049382706,0,0,0.049382716049382706,119.30864197530865,0)" xlink:href="#aL"/><use transform="matrix(0.049382716049382706,0,0,0.049382716049382706,124.24691358024688,0)" xlink:href="#aU"/><use transform="matrix(0.049382716049382706,0,0,0.049382716049382706,134.12345679012344,0)" xlink:href="#aV"/><use transform="matrix(0.049382716049382706,0,0,0.049382716049382706,143.99999999999997,0)" xlink:href="#aU"/><use transform="matrix(0.049382716049382706,0,0,0.049382716049382706,153.8765432098765,0)" xlink:href="#aR"/><use transform="matrix(0.049382716049382706,0,0,0.049382716049382706,158.81481481481478,0)" xlink:href="#aW"/><use transform="matrix(0.049382716049382706,0,0,0.049382716049382706,167.70370370370367,0)" xlink:href="#aU"/><use transform="matrix(0.049382716049382706,0,0,0.049382716049382706,177.5802469135802,0)" xlink:href="#aS"/><use transform="matrix(0.049382716049382706,0,0,0.049382716049382706,192.3456790123456,0)" xlink:href="#aP"/><use transform="matrix(0.049382716049382706,0,0,0.049382716049382706,197.2839506172839,0)" xlink:href="#aX"/><use transform="matrix(0.049382716049382706,0,0,0.049382716049382706,201.18518518518513,0)" xlink:href="#aU"/><use transform="matrix(0.049382716049382706,0,0,0.049382716049382706,211.06172839506164,0)" xlink:href="#aY"/><use transform="matrix(0.049382716049382706,0,0,0.049382716049382706,220.9382716049382,0)" xlink:href="#aZ"/><use transform="matrix(0.049382716049382706,0,0,0.049382716049382706,224.8395061728394,0)" xlink:href="#ba"/></g><path fill="#008573" d="M87 75C49 33 22-17 22-94c0-76 28-126 65-167h31c-38 41-64 92-64 168S80 34 118 75H87" id="bb"/><path fill="#008573" d="M114-163C36-179 61-72 57 0H25l-1-190h30c1 12-1 29 2 39 6-27 23-49 58-41v29" id="bc"/><path fill="#008573" d="M33-261c38 41 65 92 65 168S71 34 33 75H2C39 34 66-17 66-93S39-220 2-261h31" id="bd"/><g id="t"><use transform="matrix(0.049382716049382706,0,0,0.049382716049382706,0,0)" xlink:href="#bb"/><use transform="matrix(0.049382716049382706,0,0,0.049382716049382706,5.876543209876542,0)" xlink:href="#aU"/><use transform="matrix(0.049382716049382706,0,0,0.049382716049382706,15.75308641975308,0)" xlink:href="#bc"/><use transform="matrix(0.049382716049382706,0,0,0.049382716049382706,21.629629629629623,0)" xlink:href="#bd"/></g><path fill="#008573" d="M84 4C-5 8 30-112 23-190h32v120c0 31 7 50 39 49 72-2 45-101 50-169h31l1 190h-30c-1-10 1-25-2-33-11 22-28 36-60 37" id="be"/><g id="u"><use transform="matrix(0.049382716049382706,0,0,0.049382716049382706,0,0)" xlink:href="#aN"/><use transform="matrix(0.049382716049382706,0,0,0.049382716049382706,8.888888888888888,0)" xlink:href="#aZ"/><use transform="matrix(0.049382716049382706,0,0,0.049382716049382706,12.790123456790122,0)" xlink:href="#aY"/><use transform="matrix(0.049382716049382706,0,0,0.049382716049382706,22.666666666666664,0)" xlink:href="#ba"/><use transform="matrix(0.049382716049382706,0,0,0.049382716049382706,32.5432098765432,0)" xlink:href="#be"/><use transform="matrix(0.049382716049382706,0,0,0.049382716049382706,42.419753086419746,0)" xlink:href="#aM"/></g><path fill="#3a414a" d="M266 0h-40l-56-210L115 0H75L2-248h35L96-30l15-64 43-154h32l59 218 59-218h35" id="bf"/><path fill="#3a414a" d="M100-194c63 0 86 42 84 106H49c0 40 14 67 53 68 26 1 43-12 49-29l28 8c-11 28-37 45-77 45C44 4 14-33 15-96c1-61 26-98 85-98zm52 81c6-60-76-77-97-28-3 7-6 17-6 28h103" id="bg"/><path fill="#3a414a" d="M115-194c53 0 69 39 70 98 0 66-23 100-70 100C84 3 66-7 56-30L54 0H23l1-261h32v101c10-23 28-34 59-34zm-8 174c40 0 45-34 45-75 0-40-5-75-45-74-42 0-51 32-51 76 0 43 10 73 51 73" id="bh"/><g id="v"><use transform="matrix(0.049382716049382706,0,0,0.049382716049382706,0,0)" xlink:href="#bf"/><use transform="matrix(0.049382716049382706,0,0,0.049382716049382706,16.395061728395056,0)" xlink:href="#bg"/><use transform="matrix(0.049382716049382706,0,0,0.049382716049382706,26.2716049382716,0)" xlink:href="#bh"/></g><path fill="#3a414a" d="M185-189c-5-48-123-54-124 2 14 75 158 14 163 119 3 78-121 87-175 55-17-10-28-26-33-46l33-7c5 56 141 63 141-1 0-78-155-14-162-118-5-82 145-84 179-34 5 7 8 16 11 25" id="bi"/><path fill="#3a414a" d="M114-163C36-179 61-72 57 0H25l-1-190h30c1 12-1 29 2 39 6-27 23-49 58-41v29" id="bj"/><path fill="#3a414a" d="M108 0H70L1-190h34L89-25l56-165h34" id="bk"/><g id="w"><use transform="matrix(0.049382716049382706,0,0,0.049382716049382706,0,0)" xlink:href="#bi"/><use transform="matrix(0.049382716049382706,0,0,0.049382716049382706,11.85185185185185,0)" xlink:href="#bg"/><use transform="matrix(0.049382716049382706,0,0,0.049382716049382706,21.728395061728392,0)" xlink:href="#bj"/><use transform="matrix(0.049382716049382706,0,0,0.049382716049382706,27.604938271604933,0)" xlink:href="#bk"/><use transform="matrix(0.049382716049382706,0,0,0.049382716049382706,36.49382716049382,0)" xlink:href="#bg"/><use transform="matrix(0.049382716049382706,0,0,0.049382716049382706,46.37037037037037,0)" xlink:href="#bj"/></g><path fill="#008573" d="M30-248c87 1 191-15 191 75 0 78-77 80-158 76V0H30v-248zm33 125c57 0 124 11 124-50 0-59-68-47-124-48v98" id="bl"/><path fill="#008573" d="M140-251c81 0 123 46 123 126C263-46 219 4 140 4 59 4 17-45 17-125s42-126 123-126zm0 227c63 0 89-41 89-101s-29-99-89-99c-61 0-89 39-89 99S79-25 140-24" id="bm"/><path fill="#008573" d="M185-189c-5-48-123-54-124 2 14 75 158 14 163 119 3 78-121 87-175 55-17-10-28-26-33-46l33-7c5 56 141 63 141-1 0-78-155-14-162-118-5-82 145-84 179-34 5 7 8 16 11 25" id="bn"/><g id="x"><use transform="matrix(0.049382716049382706,0,0,0.049382716049382706,0,0)" xlink:href="#bl"/><use transform="matrix(0.049382716049382706,0,0,0.049382716049382706,11.85185185185185,0)" xlink:href="#bm"/><use transform="matrix(0.049382716049382706,0,0,0.049382716049382706,25.679012345679006,0)" xlink:href="#bn"/><use transform="matrix(0.049382716049382706,0,0,0.049382716049382706,37.53086419753085,0)" xlink:href="#aJ"/></g><path fill="#008573" d="M141-36C126-15 110 5 73 4 37 3 15-17 15-53c-1-64 63-63 125-63 3-35-9-54-41-54-24 1-41 7-42 31l-33-3c5-37 33-52 76-52 45 0 72 20 72 64v82c-1 20 7 32 28 27v20c-31 9-61-2-59-35zM48-53c0 20 12 33 32 33 41-3 63-29 60-74-43 2-92-5-92 41" id="bo"/><g id="y"><use transform="matrix(0.049382716049382706,0,0,0.049382716049382706,0,0)" xlink:href="#aK"/><use transform="matrix(0.049382716049382706,0,0,0.049382716049382706,9.87654320987654,0)" xlink:href="#aL"/><use transform="matrix(0.049382716049382706,0,0,0.049382716049382706,14.814814814814811,0)" xlink:href="#aL"/><use transform="matrix(0.049382716049382706,0,0,0.049382716049382706,19.75308641975308,0)" xlink:href="#aM"/><use transform="matrix(0.049382716049382706,0,0,0.049382716049382706,29.629629629629623,0)" xlink:href="#aN"/><use transform="matrix(0.049382716049382706,0,0,0.049382716049382706,38.51851851851851,0)" xlink:href="#aO"/><use transform="matrix(0.049382716049382706,0,0,0.049382716049382706,43.456790123456784,0)" xlink:href="#aP"/><use transform="matrix(0.049382716049382706,0,0,0.049382716049382706,48.395061728395056,0)" xlink:href="#aP"/><use transform="matrix(0.049382716049382706,0,0,0.049382716049382706,53.333333333333336,0)" xlink:href="#aQ"/><use transform="matrix(0.049382716049382706,0,0,0.049382716049382706,66.12345679012346,0)" xlink:href="#aQ"/><use transform="matrix(0.049382716049382706,0,0,0.049382716049382706,78.91358024691358,0)" xlink:href="#aQ"/><use transform="matrix(0.049382716049382706,0,0,0.049382716049382706,90.71604938271605,0)" xlink:href="#aR"/><use transform="matrix(0.049382716049382706,0,0,0.049382716049382706,95.65432098765432,0)" xlink:href="#aS"/><use transform="matrix(0.049382716049382706,0,0,0.049382716049382706,110.41975308641976,0)" xlink:href="#aT"/><use transform="matrix(0.049382716049382706,0,0,0.049382716049382706,119.30864197530865,0)" xlink:href="#aL"/><use transform="matrix(0.049382716049382706,0,0,0.049382716049382706,124.24691358024688,0)" xlink:href="#aU"/><use transform="matrix(0.049382716049382706,0,0,0.049382716049382706,134.12345679012344,0)" xlink:href="#aV"/><use transform="matrix(0.049382716049382706,0,0,0.049382716049382706,143.99999999999997,0)" xlink:href="#aU"/><use transform="matrix(0.049382716049382706,0,0,0.049382716049382706,153.8765432098765,0)" xlink:href="#aR"/><use transform="matrix(0.049382716049382706,0,0,0.049382716049382706,158.81481481481478,0)" xlink:href="#aW"/><use transform="matrix(0.049382716049382706,0,0,0.049382716049382706,167.70370370370367,0)" xlink:href="#aU"/><use transform="matrix(0.049382716049382706,0,0,0.049382716049382706,177.5802469135802,0)" xlink:href="#aS"/><use transform="matrix(0.049382716049382706,0,0,0.049382716049382706,192.3456790123456,0)" xlink:href="#aP"/><use transform="matrix(0.049382716049382706,0,0,0.049382716049382706,197.2839506172839,0)" xlink:href="#aV"/><use transform="matrix(0.049382716049382706,0,0,0.049382716049382706,207.1604938271604,0)" xlink:href="#bo"/><use transform="matrix(0.049382716049382706,0,0,0.049382716049382706,217.03703703703695,0)" xlink:href="#aL"/><use transform="matrix(0.049382716049382706,0,0,0.049382716049382706,221.97530864197523,0)" xlink:href="#bo"/></g><path fill="#3a414a" d="M240 0l2-218c-23 76-54 145-80 218h-23L58-218 59 0H30v-248h44l77 211c21-75 51-140 76-211h43V0h-30" id="bp"/><path fill="#3a414a" d="M100-194c62-1 85 37 85 99 1 63-27 99-86 99S16-35 15-95c0-66 28-99 85-99zM99-20c44 1 53-31 53-75 0-43-8-75-51-75s-53 32-53 75 10 74 51 75" id="bq"/><path fill="#3a414a" d="M117-194c89-4 53 116 60 194h-32v-121c0-31-8-49-39-48C34-167 62-67 57 0H25l-1-190h30c1 10-1 24 2 32 11-22 29-35 61-36" id="br"/><path fill="#3a414a" d="M177-190C167-65 218 103 67 71c-23-6-38-20-44-43l32-5c15 47 100 32 89-28v-30C133-14 115 1 83 1 29 1 15-40 15-95c0-56 16-97 71-98 29-1 48 16 59 35 1-10 0-23 2-32h30zM94-22c36 0 50-32 50-73 0-42-14-75-50-75-39 0-46 34-46 75s6 73 46 73" id="bs"/><path fill="#3a414a" d="M30-248c118-7 216 8 213 122C240-48 200 0 122 0H30v-248zM63-27c89 8 146-16 146-99s-60-101-146-95v194" id="bt"/><path fill="#3a414a" d="M160-131c35 5 61 23 61 61C221 17 115-2 30 0v-248c76 3 177-17 177 60 0 33-19 50-47 57zm-97-11c50-1 110 9 110-42 0-47-63-36-110-37v79zm0 115c55-2 124 14 124-45 0-56-70-42-124-44v89" id="bu"/><g id="A"><use transform="matrix(0.06172839506172839,0,0,0.06172839506172839,0,0)" xlink:href="#bp"/><use transform="matrix(0.06172839506172839,0,0,0.06172839506172839,18.456790123456788,0)" xlink:href="#bq"/><use transform="matrix(0.06172839506172839,0,0,0.06172839506172839,30.80246913580247,0)" xlink:href="#br"/><use transform="matrix(0.06172839506172839,0,0,0.06172839506172839,43.148148148148145,0)" xlink:href="#bs"/><use transform="matrix(0.06172839506172839,0,0,0.06172839506172839,55.49382716049382,0)" xlink:href="#bq"/><use transform="matrix(0.06172839506172839,0,0,0.06172839506172839,67.8395061728395,0)" xlink:href="#bt"/><use transform="matrix(0.06172839506172839,0,0,0.06172839506172839,83.82716049382717,0)" xlink:href="#bu"/></g><path fill="#cc4e00" d="M212-179c-10-28-35-45-73-45-59 0-87 40-87 99 0 60 29 101 89 101 43 0 62-24 78-52l27 14C228-24 195 4 139 4 59 4 22-46 18-125c-6-104 99-153 187-111 19 9 31 26 39 46" id="bv"/><path fill="#cc4e00" d="M233-177c-1 41-23 64-60 70L243 0h-38l-65-103H63V0H30v-248c88 3 205-21 203 71zM63-129c60-2 137 13 137-47 0-61-80-42-137-45v92" id="bw"/><path fill="#cc4e00" d="M232-93c-1 65-40 97-104 97C67 4 28-28 28-90v-158h33c8 89-33 224 67 224 102 0 64-133 71-224h33v155" id="bx"/><path fill="#cc4e00" d="M30-248c118-7 216 8 213 122C240-48 200 0 122 0H30v-248zM63-27c89 8 146-16 146-99s-60-101-146-95v194" id="by"/><g id="B"><use transform="matrix(0.06172839506172839,0,0,0.06172839506172839,0,0)" xlink:href="#bv"/><use transform="matrix(0.06172839506172839,0,0,0.06172839506172839,15.987654320987653,0)" xlink:href="#bw"/><use transform="matrix(0.06172839506172839,0,0,0.06172839506172839,31.975308641975307,0)" xlink:href="#bx"/><use transform="matrix(0.06172839506172839,0,0,0.06172839506172839,47.96296296296296,0)" xlink:href="#by"/></g></defs></g></svg>